<?xml version="1.0" encoding="UTF-8"?>
<svg version="1.1" xmlns="http://www.w3.org/2000/svg" width="312" height="270">
<path d="M0 0 C0.85207031 0.68578125 1.70414063 1.3715625 2.58203125 2.078125 C23.15952688 19.57709766 37.76175502 46.79090553 40.81689453 73.68969727 C43.30933402 105.13763711 37.04287059 135.88877458 16.49975586 160.68286133 C14.06390052 163.51612767 11.54442448 166.26446671 9 169 C8.33484375 169.74636719 7.6696875 170.49273437 6.984375 171.26171875 C-10.61542169 190.12410955 -39.12911824 203.68294373 -64.7980957 205.16113281 C-103.46919043 205.72543486 -133.22200048 195.91873287 -161.4609375 168.62109375 C-183.66545726 145.6991972 -193.71986354 116.30719967 -193.40209961 84.73242188 C-192.63880951 54.20081782 -179.51982614 26.55298458 -158 5 C-145.66056116 -6.64909168 -131.78578168 -14.88912996 -116 -21 C-115.35691895 -21.24911133 -114.71383789 -21.49822266 -114.05126953 -21.75488281 C-75.12144656 -36.36963474 -31.53338713 -25.50817927 0 0 Z M-133.3956604 31.5823822 C-135.59471205 34.89618584 -135.50119851 37.20285117 -135.50170898 41.16772461 C-135.50711197 41.88204147 -135.51251495 42.59635834 -135.51808167 43.33232117 C-135.53057065 45.68941922 -135.51407659 48.045296 -135.49609375 50.40234375 C-135.49624875 52.0437476 -135.49773794 53.68515182 -135.50050354 55.32655334 C-135.50188766 58.76563713 -135.48932907 62.20430395 -135.46655273 65.64331055 C-135.43819018 70.04621665 -135.44089905 74.44842881 -135.45364285 78.85138607 C-135.46060706 82.24095051 -135.45280194 85.63035531 -135.44038582 89.01989937 C-135.43587694 90.64296417 -135.4355296 92.26604615 -135.43945122 93.88911247 C-135.44237022 96.16072412 -135.42582412 98.43138902 -135.40405273 100.70288086 C-135.39864975 101.99431503 -135.39324677 103.28574921 -135.38768005 104.61631775 C-134.94024398 108.52155219 -133.79904547 111.20095453 -131 114 C-129.34261557 114.09346915 -127.68125356 114.11744977 -126.02124023 114.11352539 C-124.42970375 114.11341209 -124.42970375 114.11341209 -122.80601501 114.11329651 C-121.651866 114.10813522 -120.49771698 114.10297394 -119.30859375 114.09765625 C-118.13361832 114.0962413 -116.95864288 114.09482635 -115.74806213 114.09336853 C-111.97784936 114.08774992 -108.20769496 114.07519426 -104.4375 114.0625 C-101.88867273 114.0574874 -99.33984453 114.05292408 -96.79101562 114.04882812 C-90.52732367 114.03777444 -84.26366601 114.02101821 -78 114 C-78 113.01 -78 112.02 -78 111 C-95.16 110.67 -112.32 110.34 -130 110 C-131.45233927 107.09532147 -131.14337787 104.54769479 -131.16113281 101.30297852 C-131.16609772 100.61500183 -131.17106262 99.92702515 -131.17617798 99.21820068 C-131.19080382 96.93842577 -131.19760174 94.6587204 -131.203125 92.37890625 C-131.20887546 90.79711403 -131.2146332 89.21532183 -131.22039795 87.63352966 C-131.23090869 84.31549758 -131.23675109 80.99748975 -131.24023438 77.67944336 C-131.2457238 73.42432948 -131.26976081 69.16953485 -131.29820633 64.91452122 C-131.31681277 61.64689695 -131.3220372 58.37934995 -131.32357025 55.11167717 C-131.3266011 53.54275705 -131.33464415 51.97383843 -131.34775543 50.40497017 C-131.36477731 48.21187012 -131.36294583 46.01955499 -131.35644531 43.82641602 C-131.36009094 42.57780289 -131.36373657 41.32918976 -131.36749268 40.04273987 C-131 37 -131 37 -129.88340759 35.09463501 C-127.06663349 33.45752812 -124.75199618 33.64117075 -121.5090332 33.65942383 C-120.8551059 33.65898575 -120.20117859 33.65854767 -119.5274353 33.65809631 C-117.36824577 33.66018461 -115.20983495 33.68351612 -113.05078125 33.70703125 C-111.55291671 33.71262709 -110.05504668 33.71689725 -108.55717468 33.71989441 C-104.61641254 33.7313442 -100.67598255 33.76081222 -96.73535156 33.79400635 C-92.71358738 33.82470452 -88.69176947 33.83839918 -84.66992188 33.85351562 C-76.77979556 33.88568207 -68.88993911 33.93687972 -61 34 C-59.39048457 37.21903085 -59.75765252 40.74838832 -59.68359375 44.2890625 C-59.66281265 45.10748627 -59.64203156 45.92591003 -59.62062073 46.76913452 C-59.55515188 49.38766966 -59.49625274 52.00630639 -59.4375 54.625 C-59.39431224 56.39844807 -59.35069786 58.17188581 -59.30664062 59.9453125 C-59.19947324 64.29677046 -59.09819831 68.64833077 -59 73 C-58.01 73 -57.02 73 -56 73 C-55.78238802 67.96519821 -55.58564521 62.93016804 -55.40795898 57.89379883 C-55.34464257 56.18166471 -55.27568969 54.46972917 -55.20092773 52.75805664 C-55.0942685 50.29344101 -55.00809479 47.8288155 -54.92578125 45.36328125 C-54.88842361 44.60163162 -54.85106598 43.83998199 -54.81257629 43.05525208 C-54.68371779 38.47066442 -55.10836081 35.6123466 -58 32 C-61.63615575 29.57589616 -63.37093648 29.73643589 -67.70288086 29.70947266 C-68.37964371 29.70275543 -69.05640656 29.69603821 -69.75367737 29.68911743 C-71.99080751 29.67011979 -74.22763797 29.66621253 -76.46484375 29.6640625 C-78.02039209 29.65763621 -79.5759392 29.65090797 -81.13148499 29.64389038 C-84.39229129 29.63191352 -87.65299161 29.62821001 -90.91381836 29.62939453 C-95.09159604 29.62959784 -99.26869439 29.60228553 -103.446311 29.56785011 C-106.65909444 29.54561044 -109.87171357 29.54155606 -113.08456612 29.54261398 C-114.6247549 29.54025398 -116.16494795 29.53140795 -117.70506096 29.51594925 C-119.85976606 29.4963454 -122.01299561 29.50210318 -124.16772461 29.51416016 C-125.39333603 29.51131012 -126.61894745 29.50846008 -127.88169861 29.50552368 C-131.03353373 29.78492464 -131.03353373 29.78492464 -133.3956604 31.5823822 Z M-48 62 C-48.33 62.99 -48.66 63.98 -49 65 C-46.17588235 65.94137255 -44.47081968 66.11725382 -41.55078125 66.09765625 C-40.70322266 66.09443359 -39.85566406 66.09121094 -38.98242188 66.08789062 C-37.66081055 66.07532227 -37.66081055 66.07532227 -36.3125 66.0625 C-35.41982422 66.05798828 -34.52714844 66.05347656 -33.60742188 66.04882812 C-31.40491927 66.03705004 -29.20245115 66.01911481 -27 66 C-26.505 73.92 -26.505 73.92 -26 82 C-25.01 82 -24.02 82 -23 82 C-22.91882049 79.58265458 -22.85943074 77.16805051 -22.8125 74.75 C-22.78736328 74.06808594 -22.76222656 73.38617188 -22.73632812 72.68359375 C-22.69062385 69.54523342 -22.80464256 67.35729089 -24.32421875 64.578125 C-27.12029484 61.94499041 -29.79118568 61.87779319 -33.44921875 61.90234375 C-34.29677734 61.90556641 -35.14433594 61.90878906 -36.01757812 61.91210938 C-36.89865234 61.92048828 -37.77972656 61.92886719 -38.6875 61.9375 C-40.02651367 61.94426758 -40.02651367 61.94426758 -41.39257812 61.95117188 C-43.59511987 61.96295017 -45.79752599 61.97939836 -48 62 Z M-25 90 C-25 90.66 -25 91.32 -25 92 C-24.34 92 -23.68 92 -23 92 C-22.505 93.98 -22.505 93.98 -22 96 C-21.34 96 -20.68 96 -20 96 C-20.66 96.99 -21.32 97.98 -22 99 C-24.81038581 99.18304827 -27.38538001 99.18256979 -30.18359375 99.0390625 C-30.9949025 99.01024994 -31.80621124 98.98143738 -32.6421051 98.95175171 C-35.24135586 98.85720283 -37.83917612 98.74211296 -40.4375 98.625 C-43.03224181 98.51837664 -45.62704217 98.41609104 -48.22218323 98.31967163 C-49.83844837 98.25853228 -51.45448317 98.19088828 -53.07017517 98.11611938 C-56.35787667 97.98274855 -58.84945321 97.94981774 -62 99 C-62 99.99 -62 100.98 -62 102 C-48.14 102 -34.28 102 -20 102 C-21.98 104.97 -21.98 104.97 -24 108 C-23.505 108.99 -23.505 108.99 -23 110 C-18.32751069 107.17477391 -15.34003602 104.32239956 -12 100 C-15.29639684 95.73407468 -18.25701349 92.74039221 -23 90 C-23.66 90 -24.32 90 -25 90 Z M-26 119 C-27.67855968 120.67855968 -27.20795564 122.79043568 -27.28125 125.09375 C-27.31863281 126.12371094 -27.35601562 127.15367187 -27.39453125 128.21484375 C-27.42933594 129.29894531 -27.46414062 130.38304687 -27.5 131.5 C-27.56856141 133.63556094 -27.64125012 135.77099476 -27.71875 137.90625 C-27.74904297 138.85822266 -27.77933594 139.81019531 -27.81054688 140.79101562 C-28 143 -28 143 -29 144 C-31.17731389 144.12401914 -33.35863454 144.1780151 -35.53930664 144.20532227 C-36.22220261 144.21522186 -36.90509857 144.22512146 -37.60868835 144.23532104 C-39.87580853 144.26701935 -42.14294969 144.29172613 -44.41015625 144.31640625 C-45.97815001 144.3369686 -47.54613813 144.35796488 -49.11412048 144.37937927 C-53.24870248 144.43467424 -57.38333511 144.48405062 -61.51800537 144.53222656 C-65.73405483 144.58238753 -69.95003043 144.63810174 -74.16601562 144.69335938 C-82.44394976 144.80103173 -90.72194637 144.90194345 -99 145 C-99.33 137.41 -99.66 129.82 -100 122 C-100.99 122 -101.98 122 -103 122 C-104.40237061 126.20711184 -104.00608248 130.04416203 -103.8125 134.4375 C-103.79380859 135.29666016 -103.77511719 136.15582031 -103.75585938 137.04101562 C-103.58887362 140.81723735 -103.44142145 143.30633772 -101.38671875 146.53515625 C-95.22970652 150.31400991 -86.56368342 149.14518889 -79.6015625 149.1328125 C-78.41202972 149.13376923 -77.22249695 149.13472595 -75.99691772 149.13571167 C-73.48720242 149.13639047 -70.97748534 149.13455717 -68.46777344 149.13037109 C-64.64514173 149.12502815 -60.82262802 149.13032146 -57 149.13671875 C-54.55468724 149.13605773 -52.10937456 149.13477607 -49.6640625 149.1328125 C-48.52941559 149.13483673 -47.39476868 149.13686096 -46.22573853 149.13894653 C-35.17387416 149.49050834 -35.17387416 149.49050834 -24.95703125 146.20703125 C-21.90632761 141.20777439 -22.46990876 136.41517093 -22.6875 130.6875 C-22.71005859 129.56537109 -22.73261719 128.44324219 -22.75585938 127.28710938 C-22.81466224 124.52337464 -22.89679599 121.76237446 -23 119 C-23.99 119 -24.98 119 -26 119 Z " fill="#ACC478" transform="translate(226,46)"/>
<path d="M0 0 C23.48903218 18.87043997 40.40658245 45.10643022 47.70849609 74.37255859 C48.02689453 75.64615234 48.34529297 76.91974609 48.67333984 78.23193359 C56.07368946 111.45782612 48.13170238 145.7018478 30.70849609 174.37255859 C11.22641239 204.70629358 -19.86374188 226.52482928 -55.09228516 234.27978516 C-90.77941433 241.2906792 -126.53628663 233.92377334 -156.86572266 214.06787109 C-186.79203681 193.80816636 -206.30118475 162.96489183 -213.51025391 127.63818359 C-214.54328131 122.22913732 -215.11194466 116.87643972 -215.29150391 111.37255859 C-215.33146484 110.49470703 -215.37142578 109.61685547 -215.41259766 108.71240234 C-216.29426313 71.83804068 -203.01773468 39.72539338 -178.67431641 12.43896484 C-131.64472305 -36.75371069 -53.31976907 -41.37955229 0 0 Z M-113.29150391 -20.62744141 C-113.99597656 -20.42876465 -114.70044922 -20.23008789 -115.42626953 -20.02539062 C-138.38864675 -13.39015825 -158.39313226 -1.52581305 -175.29150391 15.37255859 C-176.07912109 16.16017578 -176.86673828 16.94779297 -177.67822266 17.75927734 C-200.21680325 41.55655703 -211.9715826 73.9563947 -211.57495117 106.50683594 C-210.88539397 131.51304226 -203.83039589 154.87362394 -189.29150391 175.37255859 C-188.57607422 176.38447266 -187.86064453 177.39638672 -187.12353516 178.43896484 C-178.37960428 190.44593698 -167.98525648 201.53858878 -155.29150391 209.37255859 C-154.27443359 210.02611328 -153.25736328 210.67966797 -152.20947266 211.35302734 C-136.11018574 221.53205454 -120.04592154 228.01180456 -101.29150391 231.37255859 C-100.55158203 231.50533203 -99.81166016 231.63810547 -99.04931641 231.77490234 C-67.63478623 236.23649904 -32.79564421 227.04229215 -7.33837891 208.18505859 C-4.59368424 205.97703607 -1.93271952 203.70304296 0.70849609 201.37255859 C1.57345703 200.62876953 2.43841797 199.88498047 3.32958984 199.11865234 C26.71617496 178.65094086 42.71034709 149.23445583 45.52978516 118.1105957 C47.81708597 83.06677251 40.60406654 51.19586785 17.63037109 23.90380859 C15.37451023 21.33959264 13.0615477 18.84789477 10.70849609 16.37255859 C10.2439502 15.88078125 9.7794043 15.38900391 9.30078125 14.88232422 C-10.93706838 -6.41786218 -40.80193601 -22.33191604 -70.58618164 -23.78857422 C-92.14790561 -24.28526178 -92.14790561 -24.28526178 -113.29150391 -20.62744141 Z " fill="#E0E1E1" transform="translate(232.29150390625,30.62744140625)"/>
<path d="M0 0 C2.17199611 0.01072591 4.34316548 0.00004352 6.51513672 -0.01269531 C14.41077145 -0.01944141 21.95377576 0.44804376 29.67529297 2.26074219 C28.71623047 2.69386719 28.71623047 2.69386719 27.73779297 3.13574219 C25.52323218 4.0889767 25.52323218 4.0889767 24.67529297 6.26074219 C23.1506543 6.01843872 23.1506543 6.01843872 21.59521484 5.77124023 C15.46010126 4.97225403 9.35466855 5.07020601 3.17529297 5.07324219 C2.50665222 5.07251709 1.83801147 5.07179199 1.14910889 5.07104492 C-8.47834378 5.07220224 -17.85769618 5.4005576 -27.32470703 7.26074219 C-26.61181641 4.84179687 -26.61181641 4.84179687 -25.32470703 2.26074219 C-17.92374625 -1.09650524 -8.03077866 -0.04710134 0 0 Z " fill="#D8DAD9" transform="translate(147.32470703125,2.7392578125)"/>
<path d="M0 0 C0.33 0 0.66 0 1 0 C1 12.21 1 24.42 1 37 C1.99 37 2.98 37 4 37 C4 27.76 4 18.52 4 9 C4.33 9 4.66 9 5 9 C5.33 15.6 5.66 22.2 6 29 C7.65 27.68 9.3 26.36 11 25 C13.2890625 24.42578125 13.2890625 24.42578125 15.625 24.3125 C16.90890625 24.23128906 16.90890625 24.23128906 18.21875 24.1484375 C19.1365625 24.09945312 20.054375 24.05046875 21 24 C23.04229689 23.81949396 25.08400082 23.63213137 27.125 23.4375 C28.74995883 23.29120869 30.3749437 23.14520465 32 23 C32.495 24.98 32.495 24.98 33 27 C26.07 27 19.14 27 12 27 C11.67 27.66 11.34 28.32 11 29 C16.61 29 22.22 29 28 29 C23.73670449 31.13164775 20.38798276 31.42833642 15.75 31.625 C14.63238281 31.68300781 14.63238281 31.68300781 13.4921875 31.7421875 C11.6618476 31.83605108 9.83095857 31.91909718 8 32 C8.33 33.32 8.66 34.64 9 36 C6.75 37.5625 6.75 37.5625 4 39 C2.68 38.67 1.36 38.34 0 38 C0 25.46 0 12.92 0 0 Z " fill="#ACBE83" transform="translate(166,82)"/>
<path d="M0 0 C0.66 0.66 1.32 1.32 2 2 C-6.67514939 3.74730557 -14.97567496 4.28114176 -23.8125 4.1875 C-24.98748047 4.18685547 -26.16246094 4.18621094 -27.37304688 4.18554688 C-33.01227717 4.15688901 -38.44763342 4.01320558 -44 3 C-43.67 2.34 -43.34 1.68 -43 1 C-41.35 1.33 -39.7 1.66 -38 2 C-38 1.34 -38 0.68 -38 0 C-38.66 -0.33 -39.32 -0.66 -40 -1 C-39.30028076 -0.99476318 -38.60056152 -0.98952637 -37.87963867 -0.98413086 C-34.64893525 -0.96309174 -31.41824634 -0.95025534 -28.1875 -0.9375 C-27.08728516 -0.92912109 -25.98707031 -0.92074219 -24.85351562 -0.91210938 C-18.59771403 -0.89365568 -12.53686651 -1.14160187 -6.33325195 -1.97875977 C-3.62129534 -2.00344745 -2.27543478 -1.4377764 0 0 Z " fill="#D8DADA" transform="translate(173,263)"/>
<path d="M0 0 C0.67982941 -0.0049649 1.35965881 -0.00992981 2.06008911 -0.01504517 C4.31220505 -0.02966827 6.56425062 -0.03646792 8.81640625 -0.04199219 C10.37817386 -0.04774219 11.93994143 -0.05349994 13.50170898 -0.05926514 C16.77685882 -0.06977462 20.05198411 -0.07561807 23.32714844 -0.07910156 C27.53079616 -0.08459546 31.73412146 -0.10864248 35.93766785 -0.13707352 C39.16321779 -0.15566197 42.38868934 -0.16090339 45.61428833 -0.16243744 C47.16449757 -0.16547158 48.71470518 -0.17352564 50.26486206 -0.18662262 C52.42943174 -0.20360961 54.59320389 -0.20182188 56.7578125 -0.1953125 C57.99088135 -0.19895813 59.2239502 -0.20260376 60.49438477 -0.20635986 C61.44627686 -0.08508728 62.39816895 0.0361853 63.37890625 0.16113281 C64.36890625 1.64613281 64.36890625 1.64613281 65.37890625 3.16113281 C64.46879791 3.1589122 63.55868958 3.15669159 62.6210022 3.15440369 C54.0568303 3.13439191 45.49266621 3.11915413 36.92847633 3.10932064 C32.5252241 3.10409526 28.12199114 3.09700384 23.71875 3.08569336 C19.47181381 3.07485227 15.22489619 3.06885337 10.97794724 3.06625557 C9.35518476 3.06440353 7.73242333 3.06078713 6.10966873 3.05540276 C3.84213286 3.04817613 1.57467438 3.04714256 -0.69287109 3.04760742 C-1.98526703 3.04538681 -3.27766296 3.0431662 -4.60922241 3.0408783 C-7.54413405 2.95133032 -7.54413405 2.95133032 -9.62109375 4.16113281 C-9.29109375 3.17113281 -8.96109375 2.18113281 -8.62109375 1.16113281 C-5.73453284 -0.28214764 -3.22536427 0.01786015 0 0 Z " fill="#BBCB8C" transform="translate(102.62109375,73.8388671875)"/>
<path d="M0 0 C1.8817115 0.02057465 1.8817115 0.02057465 3.80143738 0.04156494 C5.16101037 0.06723497 6.52057351 0.09343152 7.88012695 0.12011719 C9.28065581 0.14122866 10.68119435 0.16170668 12.08174133 0.18157959 C15.00956625 0.22549438 17.93714085 0.27683834 20.86474609 0.33349609 C24.62076188 0.40561731 28.37677929 0.45951389 32.13316631 0.50795364 C35.02170838 0.54713242 37.91003299 0.59570899 40.7983799 0.64717865 C42.18385054 0.67076415 43.56937364 0.69144982 44.95493126 0.70920563 C46.88677365 0.73540662 48.81841168 0.7755641 50.75 0.81640625 C51.84966599 0.83576233 52.94933197 0.85511841 54.08232117 0.87506104 C56.6809082 1.16699219 56.6809082 1.16699219 58.6809082 3.16699219 C49.84954398 3.34382727 41.01806267 3.50979134 32.18623543 3.66176796 C28.08554027 3.7326761 23.98498599 3.80736839 19.88452148 3.890625 C15.92948234 3.97079102 11.97438075 4.04112636 8.01903915 4.10456467 C6.50785728 4.13054603 4.99673269 4.16010681 3.48569107 4.19325638 C1.3738812 4.2389822 -0.7377716 4.27212936 -2.84985352 4.30224609 C-4.05342499 4.32445221 -5.25699646 4.34665833 -6.49703979 4.36953735 C-9.3190918 4.16699219 -9.3190918 4.16699219 -11.3190918 2.16699219 C-7.383014 0.31668726 -4.33212629 -0.06357821 0 0 Z " fill="#B3C18D" transform="translate(138.319091796875,187.8330078125)"/>
<path d="M0 0 C0.66 0 1.32 0 2 0 C1.84789062 0.96550781 1.69578125 1.93101563 1.5390625 2.92578125 C-1.42132028 21.87605624 -1.42132028 21.87605624 2 40 C1.72057545 41.67654729 1.39171753 43.34608154 1 45 C2.32 45.33 3.64 45.66 5 46 C4.01 46 3.02 46 2 46 C1.34 47.32 0.68 48.64 0 50 C-1.7132788 41.41506823 -2.30945045 33.18167009 -2.25 24.4375 C-2.25773437 23.29603516 -2.26546875 22.15457031 -2.2734375 20.97851562 C-2.25698376 13.77589208 -1.55908519 7.03275272 0 0 Z " fill="#AFBF8C" transform="translate(35,110)"/>
<path d="M0 0 C6.625 -0.25 6.625 -0.25 10 2 C9.67 3.32 9.34 4.64 9 6 C10.32 6.33 11.64 6.66 13 7 C12.01 8.98 11.02 10.96 10 13 C9.67 12.34 9.34 11.68 9 11 C8.34 10.67 7.68 10.34 7 10 C6.67 9.67 6.34 9.34 6 9 C4.00041636 8.95919217 1.99954746 8.95745644 0 9 C0.50603992 6.83125748 0.99983813 5.00032373 2 3 C1.01 2.67 0.02 2.34 -1 2 C-0.67 1.34 -0.34 0.68 0 0 Z " fill="#A7BE72" transform="translate(194,149)"/>
<path d="M0 0 C1.32 0 2.64 0 4 0 C6.30650294 6.27685723 6.05537201 11.82268227 5.625 18.4375 C5.56828125 19.45521484 5.5115625 20.47292969 5.453125 21.52148438 C5.31263762 24.01513537 5.16133318 26.50762555 5 29 C4.67 29 4.34 29 4 29 C4 21.08 4 13.16 4 5 C3.01 5.33 2.02 5.66 1 6 C0.67 13.59 0.34 21.18 0 29 C-0.66 29.33 -1.32 29.66 -2 30 C-1.99476318 29.34402832 -1.98952637 28.68805664 -1.98413086 28.01220703 C-1.96338728 25.04981437 -1.95034824 22.08743697 -1.9375 19.125 C-1.92912109 18.09246094 -1.92074219 17.05992187 -1.91210938 15.99609375 C-1.90888672 15.00996094 -1.90566406 14.02382812 -1.90234375 13.0078125 C-1.89710693 12.09660645 -1.89187012 11.18540039 -1.88647461 10.24658203 C-1.85114435 7.96312491 -1.85114435 7.96312491 -3 6 C-2.505 5.566875 -2.01 5.13375 -1.5 4.6875 C0.33218192 3.00259517 0.33218192 3.00259517 0 0 Z " fill="#A9BA83" transform="translate(199,160)"/>
<path d="M0 0 C0.66 0 1.32 0 2 0 C1.4266114 5.11436271 0.27858518 9.68263407 -1.5625 14.5 C-1.82208496 15.18416992 -2.08166992 15.86833984 -2.34912109 16.57324219 C-4.32547274 21.61762246 -6.59831913 26.45898098 -9.125 31.25 C-9.61141968 32.1790918 -9.61141968 32.1790918 -10.10766602 33.12695312 C-12.01141348 36.61482319 -14.042757 39.34505295 -17 42 C-17 40.35 -17 38.7 -17 37 C-15.515 36.505 -15.515 36.505 -14 36 C-14 35.01 -14 34.02 -14 33 C-13.01 32.505 -13.01 32.505 -12 32 C-11.2833793 29.68152126 -10.61757973 27.34680297 -10 25 C-9.67 24.34 -9.34 23.68 -9 23 C-8.34 23 -7.68 23 -7 23 C-6.87496094 22.27425781 -6.74992188 21.54851562 -6.62109375 20.80078125 C-6.01612459 18.07271277 -5.16011183 15.75135556 -4.0625 13.1875 C-2.26643716 8.83123122 -1.02133436 4.59600462 0 0 Z " fill="#B4C28E" transform="translate(262,160)"/>
<path d="M0 0 C0.495 0.99 0.495 0.99 1 2 C-1.05233685 4.2477975 -2.00667261 5.0022242 -5 6 C-5.33 6.66 -5.66 7.32 -6 8 C-6.99 8 -7.98 8 -9 8 C-9 8.66 -9 9.32 -9 10 C-10.57421875 11.3671875 -10.57421875 11.3671875 -12.6875 12.875 C-13.41710937 13.40609375 -14.14671875 13.9371875 -14.8984375 14.484375 C-15.93871094 15.23460937 -15.93871094 15.23460937 -17 16 C-19.62955784 17.98677704 -21.71309059 19.61745412 -23.6875 22.25 C-24.120625 22.8275 -24.55375 23.405 -25 24 C-25.66 24 -26.32 24 -27 24 C-27 24.99 -27 25.98 -27 27 C-27.66 27 -28.32 27 -29 27 C-29.33 27.99 -29.66 28.98 -30 30 C-30.99 30.33 -31.98 30.66 -33 31 C-27.25142892 18.05834511 -11.80357936 7.2285486 0 0 Z " fill="#ABBC84" transform="translate(90,34)"/>
<path d="M0 0 C0.33 0 0.66 0 1 0 C1 12.21 1 24.42 1 37 C1.99 37 2.98 37 4 37 C4 27.76 4 18.52 4 9 C4.33 9 4.66 9 5 9 C5.19622046 13.12463416 5.38050216 17.24971573 5.5625 21.375 C5.61857422 22.550625 5.67464844 23.72625 5.73242188 24.9375 C5.78076172 26.05898437 5.82910156 27.18046875 5.87890625 28.3359375 C5.9260376 29.37282715 5.97316895 30.4097168 6.02172852 31.47802734 C6 34 6 34 5 36 C5.66 36.33 6.32 36.66 7 37 C6.01 37.66 5.02 38.32 4 39 C2.68 38.67 1.36 38.34 0 38 C0 25.46 0 12.92 0 0 Z " fill="#A7B584" transform="translate(166,82)"/>
<path d="M0 0 C0.9075 0.309375 1.815 0.61875 2.75 0.9375 C5.75295374 2.01389924 5.75295374 2.01389924 7.96875 2.3125 C10.75079449 3.25411506 11.89556755 4.81578377 13.75 7.0625 C14.36359375 7.79597656 14.9771875 8.52945313 15.609375 9.28515625 C16.06828125 9.85105469 16.5271875 10.41695312 17 11 C16.01 11.495 16.01 11.495 15 12 C14.67 12.99 14.34 13.98 14 15 C11.66265901 12.69152056 9.33081534 10.37756659 7 8.0625 C6.33226562 7.40314453 5.66453125 6.74378906 4.9765625 6.06445312 C4.34492188 5.43603516 3.71328125 4.80761719 3.0625 4.16015625 C2.47597656 3.57886963 1.88945312 2.99758301 1.28515625 2.39868164 C0 1 0 1 0 0 Z " fill="#E5E5E5" transform="translate(232,36)"/>
<path d="M0 0 C0.99 0.495 0.99 0.495 2 1 C2.02187378 1.83978394 2.02187378 1.83978394 2.04418945 2.6965332 C2.11871352 5.23588137 2.21535581 7.77392078 2.3125 10.3125 C2.33505859 11.19357422 2.35761719 12.07464844 2.38085938 12.98242188 C2.41630859 13.82998047 2.45175781 14.67753906 2.48828125 15.55078125 C2.51446533 16.33106689 2.54064941 17.11135254 2.56762695 17.9152832 C3.10287996 20.49604291 3.94337091 21.3937999 6 23 C8.49443774 23.78798055 8.49443774 23.78798055 11.1875 24.1875 C12.53908203 24.42533203 12.53908203 24.42533203 13.91796875 24.66796875 C14.60503906 24.77753906 15.29210937 24.88710937 16 25 C12.90226756 25.84062397 10.21667249 26.08935201 7 26 C6.67 26.66 6.34 27.32 6 28 C3.17825529 26.58912765 3.06230199 24.92133047 2 22 C1.65195313 21.30003906 1.30390625 20.60007813 0.9453125 19.87890625 C-0.35005631 15.93391942 -0.21479441 12.30768213 -0.125 8.1875 C-0.11597656 7.39923828 -0.10695313 6.61097656 -0.09765625 5.79882812 C-0.07422504 3.86575334 -0.03835838 1.9328362 0 0 Z " fill="#AEBB8C" transform="translate(121,170)"/>
<path d="M0 0 C0.33 0.66 0.66 1.32 1 2 C-3.12151342 3.37383781 -7.2461362 3.384087 -11.55078125 3.60546875 C-14.58121967 3.77880744 -17.10345849 4.03448616 -20 5 C-22.1875 4.5625 -22.1875 4.5625 -24 4 C-21.02730987 2.3226387 -18.62485146 1.67146103 -15.234375 1.3671875 C-13.90019531 1.24150391 -13.90019531 1.24150391 -12.5390625 1.11328125 C-11.61867187 1.03464844 -10.69828125 0.95601562 -9.75 0.875 C-8.81414062 0.78863281 -7.87828125 0.70226562 -6.9140625 0.61328125 C-4.60992647 0.40167692 -2.30537956 0.19751323 0 0 Z " fill="#B7C88D" transform="translate(146,18)"/>
<path d="M0 0 C-2.88591046 2.79845863 -4.28243291 3.97342344 -8.375 4.125 C-9.57125 4.08375 -10.7675 4.0425 -12 4 C-14.40690435 4.51610035 -16.65486654 5.23424214 -19 6 C-19 5.34 -19 4.68 -19 4 C-16.77585391 3.13020539 -14.54727408 2.27916816 -12.3125 1.4375 C-11.68666016 1.19064453 -11.06082031 0.94378906 -10.41601562 0.68945312 C-6.5479443 -0.74841632 -3.96399767 -1.26575069 0 0 Z " fill="#AEC17B" transform="translate(121,24)"/>
<path d="M0 0 C0.33 0.99 0.66 1.98 1 3 C-1.80804268 5.96404505 -4.18315774 8.44499019 -8 10 C-8 10.99 -8 11.98 -8 13 C-8.66 13 -9.32 13 -10 13 C-10.33 13.99 -10.66 14.98 -11 16 C-11.99 16.33 -12.98 16.66 -14 17 C-12.44363758 13.37409619 -10.2207077 10.83141085 -7.5625 7.9375 C-6.78003906 7.08027344 -5.99757813 6.22304688 -5.19140625 5.33984375 C-3.49079133 3.52403566 -1.77582096 1.74156074 0 0 Z " fill="#B3C292" transform="translate(71,48)"/>
<path d="M0 0 C7.7498635 0.52541447 14.6450086 2.55591476 22 5 C21.01 5.66 20.02 6.32 19 7 C17.07158784 6.33503029 15.14607471 5.65376659 13.265625 4.86328125 C10.20113688 3.6956056 7.10141026 3.11611163 3.8828125 2.52734375 C2 2 2 2 0 0 Z " fill="#B8C693" transform="translate(168,20)"/>
<path d="M0 0 C0 0.99 0 1.98 0 3 C-5.61 2.67 -11.22 2.34 -17 2 C-17.33 1.34 -17.66 0.68 -18 0 C-16.87851563 0.01740234 -16.87851563 0.01740234 -15.734375 0.03515625 C-14.74953125 0.04417969 -13.7646875 0.05320312 -12.75 0.0625 C-11.77546875 0.07410156 -10.8009375 0.08570312 -9.796875 0.09765625 C-7.07747588 0.10465036 -7.07747588 0.10465036 -4.828125 -0.56640625 C-3 -1 -3 -1 0 0 Z " fill="#B3C289" transform="translate(199,106)"/>
<path d="M0 0 C6.44807122 0.60830861 6.44807122 0.60830861 8.9375 2.375 C10 4 10 4 10 7 C10.66 7.33 11.32 7.66 12 8 C11.34 8.66 10.68 9.32 10 10 C9.46375 9.2575 8.9275 8.515 8.375 7.75 C5.85015128 4.82649095 3.24183838 3.06298806 0 1 C0 0.67 0 0.34 0 0 Z " fill="#B1C087" transform="translate(203,136)"/>
<path d="M0 0 C4.50802601 1.25805377 7.4912812 2.90407165 11 6 C10.34 6.66 9.68 7.32 9 8 C5.27762318 6.75920773 3.64250671 4.85112566 1 2 C0.67 1.34 0.34 0.68 0 0 Z M4 6 C4.66 6.66 5.32 7.32 6 8 C5.01 8 4.02 8 3 8 C3.33 7.34 3.66 6.68 4 6 Z " fill="#B1C384" transform="translate(200,30)"/>
<path d="M0 0 C3.3 0.33 6.6 0.66 10 1 C8.02 1.99 8.02 1.99 6 3 C5.67 3.66 5.34 4.32 5 5 C2.69 4.67 0.38 4.34 -2 4 C-1.34 2.68 -0.68 1.36 0 0 Z " fill="#D3D4D3" transform="translate(167,4)"/>
<path d="M0 0 C1.9375 0.3125 1.9375 0.3125 4 1 C4.96070434 3.88211302 5.10581883 5.69850044 5.0625 8.6875 C5.05347656 9.49574219 5.04445312 10.30398437 5.03515625 11.13671875 C5.02355469 11.75160156 5.01195312 12.36648437 5 13 C3.49439503 10.14589666 2.36783204 7.31875358 1.375 4.25 C0.98441406 3.05117187 0.98441406 3.05117187 0.5859375 1.828125 C0.39257812 1.22484375 0.19921875 0.6215625 0 0 Z " fill="#A9BA83" transform="translate(195,111)"/>
<path d="M0 0 C0.33 0.99 0.66 1.98 1 3 C-1.75 5.0625 -1.75 5.0625 -5 7 C-7.203125 6.62109375 -7.203125 6.62109375 -9 6 C-7.8803014 4.99406757 -6.7540588 3.9954151 -5.625 3 C-4.68527344 2.1646875 -4.68527344 2.1646875 -3.7265625 1.3125 C-2 0 -2 0 0 0 Z " fill="#B0C18A" transform="translate(214,148)"/>
<path d="M0 0 C3.16115776 1.36983503 3.9927092 1.9890638 6 5 C4.1875 5.6875 4.1875 5.6875 2 6 C0.25 4.5625 0.25 4.5625 -1 3 C-0.67 2.01 -0.34 1.02 0 0 Z " fill="#DFE3E0" transform="translate(55,224)"/>
<path d="M0 0 C1.12377697 3.30435084 0.89554742 5.0506862 -0.4375 8.25 C-0.72496094 8.95640625 -1.01242188 9.6628125 -1.30859375 10.390625 C-1.53675781 10.92171875 -1.76492187 11.4528125 -2 12 C-2.66 12 -3.32 12 -4 12 C-3.45660208 7.43545749 -2.20536179 4.0271824 0 0 Z " fill="#B7C490" transform="translate(45,82)"/>
<path d="M0 0 C1.48280196 0.78483659 2.9611498 1.57809334 4.4375 2.375 C5.67306641 3.03628906 5.67306641 3.03628906 6.93359375 3.7109375 C9 5 9 5 10 7 C5.80639551 6.32902328 2.59665648 4.1441606 -1 2 C-0.67 1.34 -0.34 0.68 0 0 Z " fill="#EBEBEB" transform="translate(76,239)"/>
<path d="M0 0 C-5.75 5 -5.75 5 -8 5 C-7.75 3.125 -7.75 3.125 -7 1 C-4.09342573 -1.03460199 -3.47133392 -1.15711131 0 0 Z " fill="#B1BF83" transform="translate(224,225)"/>
<path d="M0 0 C-3.50538557 1.96301592 -7.13351728 2.95902388 -11 4 C-11 3.34 -11 2.68 -11 2 C-9.73392393 1.46770674 -8.46189588 0.94955456 -7.1875 0.4375 C-6.47980469 0.14746094 -5.77210937 -0.14257812 -5.04296875 -0.44140625 C-3 -1 -3 -1 0 0 Z " fill="#B8C68E" transform="translate(113,26)"/>
<path d="M0 0 C1.5 1.375 1.5 1.375 3 3 C3 3.66 3 4.32 3 5 C2.34 5 1.68 5 1 5 C0.67 5.66 0.34 6.32 0 7 C-1 6 -1 6 -1.125 3.5 C-1 1 -1 1 0 0 Z " fill="#DCDDDD" transform="translate(20,111)"/>
</svg>
