<?xml version="1.0" encoding="UTF-8"?>
<svg version="1.1" xmlns="http://www.w3.org/2000/svg" width="293" height="280">
<path d="M0 0 C0.70648682 0.00054382 1.41297363 0.00108765 2.14086914 0.00164795 C13.3339446 0.04122071 23.75278026 0.87110405 34.4375 4.375 C35.09492188 4.57867188 35.75234375 4.78234375 36.4296875 4.9921875 C54.00622587 10.53187469 69.0837945 19.77483807 82.4375 32.375 C83.60539062 33.44041016 83.60539062 33.44041016 84.796875 34.52734375 C103.18014617 51.94869957 116.48155919 79.94889157 117.56176758 105.2902832 C118.34348607 138.30881383 111.68186129 167.15338194 89.4375 192.375 C88.93863281 193.00535156 88.43976563 193.63570312 87.92578125 194.28515625 C83.51482244 199.8336116 78.02640689 204.06399744 72.4375 208.375 C71.66664063 208.973125 70.89578125 209.57125 70.1015625 210.1875 C56.47730165 220.2313237 41.76956619 226.28735103 25.4375 230.375 C24.41785156 230.64183594 23.39820313 230.90867188 22.34765625 231.18359375 C-5.29338869 237.06898511 -37.64698944 230.29849556 -61.359375 215.23339844 C-69.21541346 210.03380888 -77.1107416 204.27273249 -83.5625 197.375 C-83.5625 196.715 -83.5625 196.055 -83.5625 195.375 C-84.2225 195.375 -84.8825 195.375 -85.5625 195.375 C-107.30419348 173.14495969 -116.77968128 141.8089559 -116.5625 111.375 C-115.73427988 81.28094217 -102.12951594 54.73305502 -81.5625 33.375 C-80.91796875 32.65570313 -80.2734375 31.93640625 -79.609375 31.1953125 C-59.7432305 9.68805171 -28.41578902 -0.08236219 0 0 Z M-45.5625 58.375 C-47.37058587 61.3227647 -47.81047236 63.52773536 -47.7986908 66.96043396 C-47.80025177 67.87584961 -47.80181274 68.79126526 -47.80342102 69.73442078 C-47.79473495 70.73141495 -47.78604889 71.72840912 -47.77709961 72.75561523 C-47.77566956 73.81130707 -47.7742395 74.8669989 -47.77276611 75.9546814 C-47.76457461 79.44779442 -47.74078025 82.94057007 -47.71484375 86.43359375 C-47.70136499 88.85970462 -47.68806686 91.28581651 -47.67494202 93.71192932 C-47.64445178 98.79867837 -47.60507254 103.88527723 -47.56079102 108.97192383 C-47.50567979 115.49335071 -47.48281615 122.01446031 -47.4679327 128.53608608 C-47.451196 133.54707933 -47.41217769 138.5577195 -47.36694527 143.56852913 C-47.34891894 145.97305697 -47.33905835 148.37766028 -47.33747673 150.78225517 C-47.33294846 154.14384001 -47.29719821 157.50371543 -47.25366211 160.86499023 C-47.25914566 161.85996017 -47.26462921 162.85493011 -47.27027893 163.88005066 C-47.17872709 168.50471207 -47.06824821 170.69477373 -44.24247742 174.4954071 C-40.77296445 176.92873803 -37.95455288 177.03029557 -33.8671875 176.8984375 C-33.12552338 176.89409698 -32.38385925 176.88975647 -31.61972046 176.88528442 C-29.22462223 176.86474027 -26.83195381 176.80815906 -24.4375 176.75 C-22.80178104 176.72801562 -21.16603685 176.70783523 -19.53027344 176.68945312 C-8.53045071 176.54187643 2.46640844 176.20524477 13.4375 175.375 C13.1075 174.385 12.7775 173.395 12.4375 172.375 C11.7632045 172.36469254 11.088909 172.35438507 10.3941803 172.34376526 C3.40306418 172.23594231 -3.58791667 172.12132557 -10.57885742 172.00268555 C-13.19113344 171.95925876 -15.80343928 171.91758962 -18.41577148 171.87768555 C-22.16138719 171.82016993 -25.90685169 171.75642236 -29.65234375 171.69140625 C-30.82836655 171.67469376 -32.00438934 171.65798126 -33.21604919 171.64076233 C-34.29709427 171.62081711 -35.37813934 171.60087189 -36.49194336 171.58032227 C-37.44902695 171.56477798 -38.40611053 171.5492337 -39.39219666 171.53321838 C-41.5625 171.375 -41.5625 171.375 -42.5625 170.375 C-42.66012523 168.9732167 -42.68881658 167.56655547 -42.68948364 166.16137695 C-42.69230347 165.25271881 -42.69512329 164.34406067 -42.69802856 163.40786743 C-42.69600433 162.40315399 -42.6939801 161.39844055 -42.69189453 160.36328125 C-42.69364685 159.3113559 -42.69539917 158.25943054 -42.69720459 157.17562866 C-42.70162543 153.67956926 -42.69868429 150.18355997 -42.6953125 146.6875 C-42.69598547 144.26993805 -42.69695544 141.85237617 -42.69821167 139.43481445 C-42.69968896 134.36050779 -42.69753309 129.28621869 -42.69287109 124.21191406 C-42.6871738 117.69115297 -42.69045263 111.17043304 -42.69644356 104.64967346 C-42.70004833 99.65531094 -42.69891097 94.66095826 -42.69631577 89.66659546 C-42.69564626 87.26150508 -42.69647572 84.85641382 -42.69879532 82.45132446 C-42.70132048 79.09643165 -42.69748317 75.7416065 -42.69189453 72.38671875 C-42.69391876 71.38200531 -42.69594299 70.37729187 -42.69802856 69.34213257 C-42.69520874 68.43347443 -42.69238892 67.52481628 -42.68948364 66.58862305 C-42.68910662 65.79441452 -42.68872959 65.00020599 -42.68834114 64.18193054 C-42.5625 62.375 -42.5625 62.375 -41.5625 61.375 C-39.6906906 61.28113619 -37.8153194 61.25756196 -35.94116211 61.26147461 C-34.13940773 61.26158791 -34.13940773 61.26158791 -32.30125427 61.26170349 C-30.9939888 61.26686478 -29.68672333 61.27202606 -28.33984375 61.27734375 C-26.99605868 61.27920802 -25.65227293 61.28063188 -24.30848694 61.28163147 C-20.76567723 61.28545598 -17.2229083 61.29528568 -13.68011475 61.30633545 C-10.06734773 61.31655101 -6.45457416 61.3211294 -2.84179688 61.32617188 C4.2513188 61.33690802 11.34440674 61.35398364 18.4375 61.375 C19.38585363 64.22006088 19.49222527 65.70965846 19.375 68.625 C19.32545215 72.96397572 19.94129296 76.30199195 21.4375 80.375 C22.4275 81.365 22.4275 81.365 23.4375 82.375 C28.7175 82.375 33.9975 82.375 39.4375 82.375 C39.4375 96.565 39.4375 110.755 39.4375 125.375 C40.4275 125.375 41.4175 125.375 42.4375 125.375 C42.71836114 118.74150099 42.90982045 112.10955257 43.04174805 105.47143555 C43.09678262 103.21792324 43.17164091 100.96479864 43.26733398 98.71264648 C44.42703191 84.27570179 44.42703191 84.27570179 38.55097961 71.75605774 C34.56083917 67.81765975 34.56083917 67.81765975 29.4375 66.375 C29.128125 65.5396875 29.128125 65.5396875 28.8125 64.6875 C26.8749686 61.42892446 24.75876061 59.16506987 21.4375 57.375 C17.58144196 56.63196667 13.78143692 56.65359442 9.86328125 56.66796875 C8.74366501 56.65284744 7.62404877 56.63772614 6.47050476 56.62214661 C2.89680016 56.57928547 -0.67606438 56.57044904 -4.25 56.5625 C-6.63478837 56.53934357 -9.01955635 56.51397587 -11.40429688 56.48632812 C-16.80875966 56.42935008 -22.21273552 56.38757514 -27.61752319 56.38729858 C-29.62146939 56.37892986 -31.6254125 56.34983336 -33.6288147 56.30239868 C-34.6018454 56.28422089 -35.5748761 56.26604309 -36.57739258 56.24731445 C-37.44149246 56.22449905 -38.30559235 56.20168365 -39.19587708 56.17817688 C-41.86198106 56.39990671 -43.35646988 56.86408887 -45.5625 58.375 Z M-29.5625 79.375 C-29.5625 80.365 -29.5625 81.355 -29.5625 82.375 C-20.9825 82.375 -12.4025 82.375 -3.5625 82.375 C-3.5625 81.385 -3.5625 80.395 -3.5625 79.375 C-4.68414329 78.0282115 -4.68414329 78.0282115 -7.58984375 78.2421875 C-14.96744117 78.25692795 -22.23619882 78.40965208 -29.5625 79.375 Z M-29.5625 94.375 C-29.8925 95.365 -30.2225 96.355 -30.5625 97.375 C-28.14521889 98.58364056 -26.61670761 98.50187023 -23.91674805 98.50439453 C-22.95202072 98.50754669 -21.9872934 98.51069885 -20.99333191 98.51394653 C-19.94752457 98.5119223 -18.90171722 98.50989807 -17.82421875 98.5078125 C-16.21484184 98.50924759 -16.21484184 98.50924759 -14.57295227 98.51071167 C-12.29904115 98.51139321 -10.0251281 98.50954075 -7.7512207 98.50537109 C-4.27485759 98.50003813 -0.79862461 98.5053089 2.67773438 98.51171875 C4.88541695 98.51105766 7.09309945 98.50977585 9.30078125 98.5078125 C10.3405159 98.50983673 11.38025055 98.51186096 12.45149231 98.51394653 C13.42567612 98.51079437 14.39985992 98.50764221 15.40356445 98.50439453 C16.68358086 98.50320114 16.68358086 98.50320114 17.98945618 98.50198364 C20.55462889 98.36892435 22.93445858 97.93841632 25.4375 97.375 C24.9425 95.89 24.9425 95.89 24.4375 94.375 C6.6175 94.375 -11.2025 94.375 -29.5625 94.375 Z M-29.5625 109.375 C-29.5625 110.365 -29.5625 111.355 -29.5625 112.375 C-11.7425 112.375 6.0775 112.375 24.4375 112.375 C24.7675 111.385 25.0975 110.395 25.4375 109.375 C7.2875 109.375 -10.8625 109.375 -29.5625 109.375 Z M-29.5625 123.375 C-29.8925 124.365 -30.2225 125.355 -30.5625 126.375 C-15.0525 126.375 0.4575 126.375 16.4375 126.375 C16.4375 125.385 16.4375 124.395 16.4375 123.375 C1.2575 123.375 -13.9225 123.375 -29.5625 123.375 Z M18.171875 139.29296875 C14.12285749 144.15361364 12.0105992 149.65121889 12.4375 156 C13.75800064 163.34043001 16.85145844 168.40793995 22.55859375 173.1484375 C28.22506238 176.84754592 33.84947625 177.23047296 40.4375 176.375 C47.89763173 173.91642759 52.40773919 170.20972469 56.5390625 163.6171875 C58.7238021 158.16483737 58.39855018 150.70702426 56.78515625 145.11328125 C54.00821028 139.80967199 49.3824938 135.56552941 43.8671875 133.3359375 C33.82986044 130.20475967 25.90958712 131.94214224 18.171875 139.29296875 Z M-29.5625 138.375 C-29.5625 139.365 -29.5625 140.355 -29.5625 141.375 C-19.0025 141.375 -8.4425 141.375 2.4375 141.375 C2.7675 140.385 3.0975 139.395 3.4375 138.375 C-7.4525 138.375 -18.3425 138.375 -29.5625 138.375 Z M-28.5625 152.375 C-29.5525 153.86 -29.5525 153.86 -30.5625 155.375 C-28.95079746 156.98670254 -27.20117458 156.50487931 -24.9765625 156.5078125 C-23.58050781 156.50974609 -23.58050781 156.50974609 -22.15625 156.51171875 C-21.1765625 156.50785156 -20.196875 156.50398437 -19.1875 156.5 C-17.72957031 156.50580078 -17.72957031 156.50580078 -16.2421875 156.51171875 C-15.30890625 156.51042969 -14.375625 156.50914062 -13.4140625 156.5078125 C-12.55635254 156.50668457 -11.69864258 156.50555664 -10.81494141 156.50439453 C-8.39305065 156.46368276 -8.39305065 156.46368276 -5.5625 155.375 C-5.5625 154.715 -5.5625 154.055 -5.5625 153.375 C-11.40852575 152.73055622 -17.24382728 152.26722909 -23.125 152.125 C-24.11628906 152.09921875 -25.10757813 152.0734375 -26.12890625 152.046875 C-27.33353516 152.20929688 -27.33353516 152.20929688 -28.5625 152.375 Z " fill="#86B6CF" transform="translate(145.5625,18.625)"/>
<path d="M0 0 C0.67466309 0.16097168 1.34932617 0.32194336 2.04443359 0.48779297 C36.22923005 8.79266417 64.39427758 30.8991305 83.125 60.3125 C90.27199571 72.24784075 95.42648696 84.56828856 99 98 C99.48146484 99.73830078 99.48146484 99.73830078 99.97265625 101.51171875 C107.34974285 133.25034716 100.97353865 168.37361283 84 196 C63.76113754 227.78193992 34.10255557 249.65063828 -2.62866211 258.47998047 C-11.61374465 260.45035273 -20.24116997 261.33257406 -29.4375 261.25 C-31.08480103 261.23984863 -31.08480103 261.23984863 -32.76538086 261.22949219 C-40.34049705 261.13278618 -47.59486535 260.68821722 -55 259 C-56.86398438 258.5978125 -56.86398438 258.5978125 -58.765625 258.1875 C-91.85978082 250.71267422 -122.08575899 231.55954456 -141 203 C-155.02378707 180.43022268 -163.4492251 156.65554006 -163.3125 129.875 C-163.30686035 128.70138916 -163.3012207 127.52777832 -163.29541016 126.31860352 C-162.76464842 87.86990792 -145.88445417 55.91910844 -118.64453125 29.390625 C-114.41184123 25.3753041 -109.94503654 22.08444587 -105 19 C-104.27039063 18.46761719 -103.54078125 17.93523438 -102.7890625 17.38671875 C-74.07119698 -2.8273128 -33.68065006 -8.42869358 0 0 Z M-125 41 C-146.67703931 65.71370914 -159.74834243 95.57678447 -159.4375 128.6875 C-159.43445862 129.38044159 -159.43141724 130.07338318 -159.42828369 130.787323 C-159.20784302 164.92182613 -145.4253267 194.45301861 -122 219 C-121.12021484 219.99193359 -121.12021484 219.99193359 -120.22265625 221.00390625 C-107.91866071 234.33099114 -89.87937573 244.09659139 -73 250 C-72.23171875 250.28617188 -71.4634375 250.57234375 -70.671875 250.8671875 C-39.95193873 261.90360905 -5.43626841 258.299534 23.86376953 245.00927734 C34.62851763 239.92339522 44.08068926 233.93136837 53 226 C53.81597656 225.32710937 54.63195312 224.65421875 55.47265625 223.9609375 C79.65349955 203.49727614 94.83020093 172.35883386 97.53564453 141.04199219 C100.00090181 108.09894581 92.41427443 75.16915224 70.69921875 49.45996094 C67.57684427 45.86293154 64.30309672 42.43086694 61 39 C60.24460938 38.15824219 59.48921875 37.31648438 58.7109375 36.44921875 C43.34492957 19.89511742 21.5877153 9.64584952 0 4 C-1.16789063 3.6803125 -2.33578125 3.360625 -3.5390625 3.03125 C-46.83893302 -6.98242455 -94.88989495 8.58022315 -125 41 Z " fill="#D9DBDB" transform="translate(177,6)"/>
<path d="M0 0 C0.99 0.33 1.98 0.66 3 1 C3.93456062 3.4509606 4.68409121 5.79283304 5.375 8.3125 C11.88199596 30.4240089 23.14340265 49.35961647 39 66 C39.51304688 66.5878125 40.02609375 67.175625 40.5546875 67.78125 C52.41561593 80.80983459 70.67231547 90.28954038 87 96 C87.76828125 96.28617187 88.5365625 96.57234375 89.328125 96.8671875 C120.04806127 107.90360905 154.56373159 104.299534 183.86376953 91.00927734 C194.63236164 85.92157908 204.07073646 79.92472139 213 72 C213.804375 71.3503125 214.60875 70.700625 215.4375 70.03125 C234.41716733 54.21486056 248.65631111 29.02115387 254 5 C255.98 5.495 255.98 5.495 258 6 C257.46892157 11.56397282 256.40664486 16.46131372 254.375 21.6875 C254.10921143 22.37884033 253.84342285 23.07018066 253.56958008 23.7824707 C239.97142953 58.19920379 212.84808794 83.95843588 179.25244141 98.55541992 C163.74180216 104.98498022 147.34525014 108.4006927 130.5625 108.25 C128.91519897 108.23984863 128.91519897 108.23984863 127.23461914 108.22949219 C119.65950295 108.13278618 112.40513465 107.68821722 105 106 C103.13601562 105.5978125 103.13601562 105.5978125 101.234375 105.1875 C68.14021918 97.71267422 37.91424101 78.55954456 19 50 C10.00434992 35.52246849 2.10365756 19.88817803 -1 3 C-0.67 2.01 -0.34 1.02 0 0 Z " fill="#DFE0E1" transform="translate(17,159)"/>
<path d="M0 0 C1.06863281 0.01804688 2.13726562 0.03609375 3.23828125 0.0546875 C4.04652344 0.07789063 4.85476562 0.10109375 5.6875 0.125 C5.6875 0.785 5.6875 1.445 5.6875 2.125 C6.58082031 2.27195313 6.58082031 2.27195313 7.4921875 2.421875 C12.0389856 3.87814485 14.7998889 8.5515076 17.0625 12.5625 C18.62785282 18.98044657 18.06001749 23.66260099 14.89453125 29.3671875 C12.3342847 33.09570189 8.80782155 35.41426579 4.6875 37.125 C-1.70334711 37.8103694 -7.95584918 38.0445006 -13.3125 34.125 C-17.88413144 29.34556714 -20.09418931 25.83205262 -20.625 19.25 C-20.4124073 12.59709915 -17.60178597 7.96814038 -13.0078125 3.38671875 C-8.85717296 0.29764831 -5.07604827 -0.1115615 0 0 Z M6.6875 11.125 C4.64293941 13.29764655 4.64293941 13.29764655 2.5625 16 C1.83804688 16.90492188 1.11359375 17.80984375 0.3671875 18.7421875 C-1.50455234 20.91155811 -1.50455234 20.91155811 -1.3125 23.125 C-2.62852523 22.50745741 -3.94023556 21.88071258 -5.25 21.25 C-5.98089844 20.90195313 -6.71179688 20.55390625 -7.46484375 20.1953125 C-9.3125 19.125 -9.3125 19.125 -10.3125 17.125 C-10.9725 17.125 -11.6325 17.125 -12.3125 17.125 C-12.65238233 20.34059422 -12.65238233 20.34059422 -9.9375 22.6875 C-8.638125 23.8940625 -8.638125 23.8940625 -7.3125 25.125 C-6.6525 25.785 -5.9925 26.445 -5.3125 27.125 C-0.99190041 27.01961952 1.64007477 23.6873013 4.5 20.8125 C5.01498047 20.32587891 5.52996094 19.83925781 6.06054688 19.33789062 C7.72264278 17.74382822 7.72264278 17.74382822 9.6875 15.125 C9.66529142 12.81573699 9.66529142 12.81573699 8.6875 11.125 C8.0275 11.125 7.3675 11.125 6.6875 11.125 Z " fill="#89B5CC" transform="translate(182.3125,153.875)"/>
<path d="M0 0 C0.99 -0.33 1.98 -0.66 3 -1 C2 2 2 2 0.47558594 3.0715332 C-1.75881702 4.17037949 -3.99299314 5.26053738 -6.25 6.3125 C-7.09248291 6.70767822 -7.93496582 7.10285645 -8.80297852 7.51000977 C-25.71345698 15.16180293 -43.87233619 19.41531118 -62.4375 19.25 C-63.53280029 19.24395752 -64.62810059 19.23791504 -65.7565918 19.23168945 C-77.65845907 19.08562712 -88.50675836 17.10628152 -100 14 C-99.67 13.01 -99.34 12.02 -99 11 C-95.04909829 10.83187652 -91.65681195 10.99045235 -87.8125 11.9375 C-60.78237064 18.35374283 -28.85491864 13.09627076 -4.69921875 -0.2734375 C-3 -1 -3 -1 0 0 Z " fill="#DADCDC" transform="translate(210,248)"/>
<path d="M0 0 C1.78567383 -0.01836914 1.78567383 -0.01836914 3.60742188 -0.03710938 C11.68661403 -0.05028913 19.36840124 0.72496382 27.3125 2.1875 C26.3225 2.5175 25.3325 2.8475 24.3125 3.1875 C24.3125 3.8475 24.3125 4.5075 24.3125 5.1875 C26.6225 5.5175 28.9325 5.8475 31.3125 6.1875 C27.8720286 7.33919818 25.48686654 6.99843346 21.96484375 6.265625 C14.90475931 4.99346054 8.03324848 4.8922662 0.875 4.9375 C-0.34509766 4.92976562 -1.56519531 4.92203125 -2.82226562 4.9140625 C-9.9937218 4.92931281 -16.8075131 5.48604652 -23.86743164 6.75878906 C-26.52713768 7.16312148 -29.00292187 7.26500185 -31.6875 7.1875 C-31.6875 6.5275 -31.6875 5.8675 -31.6875 5.1875 C-32.6775 4.8575 -33.6675 4.5275 -34.6875 4.1875 C-32.68877261 3.70305236 -30.68844063 3.2252234 -28.6875 2.75 C-27.57375 2.48316406 -26.46 2.21632813 -25.3125 1.94140625 C-16.83414047 0.17812674 -8.64022687 0.00460321 0 0 Z M-38.6875 5.1875 C-34.6875 6.1875 -34.6875 6.1875 -34.6875 6.1875 Z " fill="#CCD0CF" transform="translate(145.6875,2.8125)"/>
<path d="M0 0 C14.49453453 17.12598276 13.4139446 46.74275038 11.80517578 67.515625 C10.30922591 81.1229563 5.07181699 95.29653144 -2 107 C-3.31223496 103.06329512 -2.24296256 100.87511856 -1 97 C-0.34 97 0.32 97 1 97 C2.52133954 93.52265248 3.55293714 90.04842472 4.43359375 86.359375 C4.8471561 84.6366739 5.27945345 82.9184396 5.72265625 81.203125 C6.51171931 78.14203613 7.26212958 75.07380246 8 72 C8.21011719 71.17113281 8.42023438 70.34226562 8.63671875 69.48828125 C11.53108323 56.41232258 11.22286874 40.1904192 9 27 C8.34 26.67 7.68 26.34 7 26 C7 23.69 7 21.38 7 19 C6.34 18.67 5.68 18.34 5 18 C5 16.02 5 14.04 5 12 C4.38125 11.731875 3.7625 11.46375 3.125 11.1875 C1 10 1 10 -1 7 C-1.1875 3.875 -1.1875 3.875 -1 1 C-0.67 0.67 -0.34 0.34 0 0 Z " fill="#93B3C2" transform="translate(251,84)"/>
<path d="M0 0 C1.32 0 2.64 0 4 0 C3.9292627 0.5355249 3.85852539 1.0710498 3.78564453 1.62280273 C2.91553839 9.05540533 2.84722452 16.45829974 2.86962891 23.93188477 C2.87499895 26.0620838 2.86964808 28.19207288 2.86328125 30.32226562 C2.86023786 37.28585374 3.03042311 44.09753597 4 51 C2.68 51 1.36 51 0 51 C-1.81264629 42.81418847 -2.30693412 34.9943154 -2.25 26.625 C-2.25773438 25.49578125 -2.26546875 24.3665625 -2.2734375 23.203125 C-2.25536787 15.30669879 -1.40796728 7.76627054 0 0 Z " fill="#CACFCF" transform="translate(16,109)"/>
<path d="M0 0 C2.125 0.375 2.125 0.375 4 1 C4 1.66 4 2.32 4 3 C4.99 3.33 5.98 3.66 7 4 C9.06909314 6.94447871 10.21311377 9.51839961 11 13 C9.37536158 13.05395478 7.75021459 13.09277195 6.125 13.125 C5.22007812 13.14820312 4.31515625 13.17140625 3.3828125 13.1953125 C1 13 1 13 -1 11 C-1.484375 8.90625 -1.484375 8.90625 -1.75 6.5 C-1.84796875 5.7059375 -1.9459375 4.911875 -2.046875 4.09375 C-2 2 -2 2 0 0 Z " fill="#95BCD2" transform="translate(169,84)"/>
<path d="M0 0 C-0.66 0.33 -1.32 0.66 -2 1 C-2.33 1.99 -2.66 2.98 -3 4 C-13.50483112 6.75536554 -24.23710623 6.1948442 -35 6 C-31.55338621 4.13503884 -29.31480777 3.80475715 -25.375 3.9375 C-21.53825946 4.16497696 -21.53825946 4.16497696 -18 3 C-18 2.34 -18 1.68 -18 1 C-15.56348622 0.63737003 -13.12623023 0.28461036 -10.6875 -0.0625 C-9.99720703 -0.16626953 -9.30691406 -0.27003906 -8.59570312 -0.37695312 C-5.30415164 -0.83808836 -3.19783876 -1.06594625 0 0 Z " fill="#D4D5D6" transform="translate(174,261)"/>
<path d="M0 0 C0.33 0 0.66 0 1 0 C1 11.22 1 22.44 1 34 C0.01 34 -0.98 34 -2 34 C-2.05886171 30.20840036 -2.09388224 26.41692081 -2.125 22.625 C-2.14175781 21.56410156 -2.15851563 20.50320312 -2.17578125 19.41015625 C-2.21702572 12.68730739 -1.62170836 6.52888452 0 0 Z " fill="#91B5CA" transform="translate(98,151)"/>
<path d="M0 0 C3 1 3 1 3.9921875 2.71484375 C4.28351562 3.44832031 4.57484375 4.18179688 4.875 4.9375 C6.70403993 9.3512064 8.77000377 13.58545627 10.94921875 17.8359375 C12 20 12 20 13 23 C13.99 23.33 14.98 23.66 16 24 C16 24.99 16 25.98 16 27 C16.66 27 17.32 27 18 27 C19.36363208 28.97946592 20.69418644 30.9819245 22 33 C22.5775 33.5775 23.155 34.155 23.75 34.75 C25 36 25 36 25 38 C24.34 38 23.68 38 23 38 C20.73030999 35.67932979 18.83738443 33.0196139 16.875 30.4375 C16.29258545 29.67332764 15.7101709 28.90915527 15.11010742 28.12182617 C8.67156064 19.48566486 3.18968016 10.35467598 0 0 Z " fill="#93B5C3" transform="translate(37,176)"/>
<path d="M0 0 C3.81166211 0.52939752 6.11842249 1.42716294 9 4 C9.33 4.66 9.66 5.32 10 6 C11.32 6 12.64 6 14 6 C14 6.99 14 7.98 14 9 C14.804375 9.1546875 14.804375 9.1546875 15.625 9.3125 C18.62502044 10.18092697 21.2379535 11.55620296 24 13 C24 13.66 24 14.32 24 15 C26.97 15.495 26.97 15.495 30 16 C30 16.66 30 17.32 30 18 C24.56041301 16.68385797 20.30028676 14.69790189 15.5625 11.75 C14.91015381 11.35103516 14.25780762 10.95207031 13.58569336 10.54101562 C8.84625143 7.60918304 4.32169183 4.5279117 0 1 C0 0.67 0 0.34 0 0 Z " fill="#96B8C6" transform="translate(72,224)"/>
<path d="M0 0 C1 2 1 2 0.9375 5.4375 C0.8698525 10.70434075 1.61413187 15.91848351 3 21 C3.66 21.66 4.32 22.32 5 23 C5.4140625 25.8203125 5.4140625 25.8203125 5.625 29.125 C5.69976562 30.22070312 5.77453125 31.31640625 5.8515625 32.4453125 C5.90054688 33.28835937 5.94953125 34.13140625 6 35 C2.7544639 31.7544639 2.40571973 27.44512329 1.375 23.0625 C1.14989746 22.1127832 0.92479492 21.16306641 0.69287109 20.18457031 C-0.74654289 13.82851853 -2.01127048 7.52991796 -1 1 C-0.67 0.67 -0.34 0.34 0 0 Z " fill="#90B6C4" transform="translate(31,139)"/>
<path d="M0 0 C0.33 0.66 0.66 1.32 1 2 C-0.07421875 4.25 -0.07421875 4.25 -1.6875 7 C-6.42827449 15.43659869 -9.45362218 23.43687401 -11 33 C-11.99 33 -12.98 33 -14 33 C-11.14593575 21.00364863 -6.02416989 10.70273481 0 0 Z " fill="#96B9C6" transform="translate(47,73)"/>
<path d="M0 0 C0.99 0 1.98 0 3 0 C1.56140464 4.26912893 -0.56814873 7.23391301 -3.4375 10.6875 C-4.61119141 12.11642578 -4.61119141 12.11642578 -5.80859375 13.57421875 C-8 16 -8 16 -11 18 C-9.81072305 12.37796351 -8.48868009 10.41994674 -4 7 C-2.46998399 4.73695381 -1.26241572 2.43131916 0 0 Z " fill="#96B3C4" transform="translate(243,195)"/>
<path d="M0 0 C0.33 0 0.66 0 1 0 C1.66 4.62 2.32 9.24 3 14 C1.68 14 0.36 14 -1 14 C-1.93385816 11.19842552 -2.16354595 9.34552197 -2.1875 6.4375 C-2.20167969 5.65246094 -2.21585938 4.86742187 -2.23046875 4.05859375 C-2 2 -2 2 0 0 Z " fill="#CED2D3" transform="translate(17,146)"/>
<path d="M0 0 C1.9375 0.6875 1.9375 0.6875 4 2 C4.93580311 4.87939419 5.37245106 6.25509788 4 9 C0.31245243 8.50168276 -1.60490662 7.89932357 -4 5 C-3.34 4.67 -2.68 4.34 -2 4 C-2 3.34 -2 2.68 -2 2 C-1.34 2 -0.68 2 0 2 C0 1.34 0 0.68 0 0 Z " fill="#88AFC4" transform="translate(177,168)"/>
<path d="M0 0 C0.66 0.66 1.32 1.32 2 2 C1.9765625 5.2578125 1.9765625 5.2578125 1.625 9.125 C1.51414063 10.40632812 1.40328125 11.68765625 1.2890625 13.0078125 C1.19367188 13.99523437 1.09828125 14.98265625 1 16 C0.01 15.67 -0.98 15.34 -2 15 C-2.33 11.7 -2.66 8.4 -3 5 C-2.34 5 -1.68 5 -1 5 C-0.67 3.35 -0.34 1.7 0 0 Z " fill="#8AB2C4" transform="translate(158,161)"/>
<path d="M0 0 C9.58494583 0.22337797 18.01590099 2.94518089 27 6 C25.02 6.99 25.02 6.99 23 8 C23 7.34 23 6.68 23 6 C20.29172996 5.52047335 17.58338656 5.04136769 14.875 4.5625 C14.11445313 4.42779297 13.35390625 4.29308594 12.5703125 4.15429688 C8.38362839 3.41440873 4.19522853 2.69026923 0 2 C0 1.34 0 0.68 0 0 Z " fill="#92B4BF" transform="translate(162,20)"/>
<path d="M0 0 C0.99 0 1.98 0 3 0 C3.12375 0.639375 3.2475 1.27875 3.375 1.9375 C3.684375 2.9584375 3.684375 2.9584375 4 4 C4.66 4.33 5.32 4.66 6 5 C6 5.66 6 6.32 6 7 C4.35 7.66 2.7 8.32 1 9 C0.67 8.01 0.34 7.02 0 6 C-0.99 5.67 -1.98 5.34 -3 5 C-2.34 5 -1.68 5 -1 5 C-1.33 4.01 -1.66 3.02 -2 2 C-1.34 2 -0.68 2 0 2 C0 1.34 0 0.68 0 0 Z " fill="#82B0C8" transform="translate(158,185)"/>
<path d="M0 0 C2.55227651 3.07150755 3.88776704 5.98525624 5.1875 9.75 C5.53167969 10.73484375 5.87585938 11.7196875 6.23046875 12.734375 C6.61138672 13.85585937 6.61138672 13.85585937 7 15 C6.34 15 5.68 15 5 15 C5 14.01 5 13.02 5 12 C4.38125 11.731875 3.7625 11.46375 3.125 11.1875 C1 10 1 10 -1 7 C-1.1875 3.875 -1.1875 3.875 -1 1 C-0.67 0.67 -0.34 0.34 0 0 Z " fill="#8EB8C6" transform="translate(251,84)"/>
<path d="M0 0 C1.67542976 0.28604898 3.34385343 0.61781233 5 1 C4.125 5.875 4.125 5.875 3 7 C1.48071962 7.07179964 -0.04167482 7.08392007 -1.5625 7.0625 C-2.38878906 7.05347656 -3.21507812 7.04445312 -4.06640625 7.03515625 C-4.70449219 7.02355469 -5.34257812 7.01195312 -6 7 C-6.33 6.34 -6.66 5.68 -7 5 C-1.25 3.875 -1.25 3.875 1 5 C0.34 3.68 -0.32 2.36 -1 1 C-0.67 0.67 -0.34 0.34 0 0 Z " fill="#96BED3" transform="translate(184,144)"/>
<path d="M0 0 C0.99 0.33 1.98 0.66 3 1 C4.16513114 3.96578836 4.08762121 6.84563636 4 10 C0.125 9.125 0.125 9.125 -1 8 C-1.23529412 2.47058824 -1.23529412 2.47058824 0 0 Z " fill="#86AFC5" transform="translate(169,87)"/>
<path d="M0 0 C4.29 0.33 8.58 0.66 13 1 C13 1.66 13 2.32 13 3 C15.31 3.33 17.62 3.66 20 4 C20 4.33 20 4.66 20 5 C12.96871122 4.56615452 6.670985 3.25678003 0 1 C0 0.67 0 0.34 0 0 Z " fill="#8FB4C5" transform="translate(108,244)"/>
<path d="M0 0 C0.66 0.33 1.32 0.66 2 1 C2.86159454 4.23097953 3.30597523 6.22486274 2.0625 9.375 C1.711875 9.91125 1.36125 10.4475 1 11 C-0.32 9.68 -1.64 8.36 -3 7 C-2.690625 6.401875 -2.38125 5.80375 -2.0625 5.1875 C-0.89790296 2.91043228 -0.89790296 2.91043228 0 0 Z " fill="#91BDD4" transform="translate(163,86)"/>
<path d="M0 0 C1.07765625 0.01804688 2.1553125 0.03609375 3.265625 0.0546875 C4.49539062 0.08949219 4.49539062 0.08949219 5.75 0.125 C5.75 0.785 5.75 1.445 5.75 2.125 C5.00234375 2.07859375 4.2546875 2.0321875 3.484375 1.984375 C-2.59255878 1.54028891 -2.59255878 1.54028891 -7.8125 4.125 C-8.286875 4.785 -8.76125 5.445 -9.25 6.125 C-9.91 6.125 -10.57 6.125 -11.25 6.125 C-11 4.25 -11 4.25 -10.25 2.125 C-6.89706585 -0.15246471 -3.97157137 -0.08633851 0 0 Z " fill="#88B0C0" transform="translate(182.25,153.875)"/>
<path d="M0 0 C3.84762566 3.4201117 6.60634022 7.46774256 9 12 C9 12.66 9 13.32 9 14 C8.01 14 7.02 14 6 14 C5.896875 13.401875 5.79375 12.80375 5.6875 12.1875 C5.18495224 9.94818274 5.18495224 9.94818274 3.5625 8.6875 C1.22161761 6.15934702 0.80670456 3.28887243 0 0 Z " fill="#8FB4C2" transform="translate(240,66)"/>
<path d="M0 0 C4.17443363 3.50074982 8.3145494 6.97950843 12 11 C12 11.66 12 12.32 12 13 C11.01 12.67 10.02 12.34 9 12 C8.67 11.34 8.34 10.68 8 10 C7.01 9.67 6.02 9.34 5 9 C4.29848848 7.6846659 3.63474075 6.34882408 3 5 C2.46375 4.46375 1.9275 3.9275 1.375 3.375 C0.92125 2.92125 0.4675 2.4675 0 2 C0 1.34 0 0.68 0 0 Z " fill="#91B4C4" transform="translate(224,48)"/>
<path d="M0 0 C1.58294782 -0.05437607 3.16644256 -0.09296271 4.75 -0.125 C5.63171875 -0.14820312 6.5134375 -0.17140625 7.421875 -0.1953125 C10.1135858 0.00860498 11.69904974 0.63448279 14 2 C13.34 3.32 12.68 4.64 12 6 C10.35 5.67 8.7 5.34 7 5 C7.99 4.67 8.98 4.34 10 4 C9.67 3.34 9.34 2.68 9 2 C6.87423218 1.53348793 6.87423218 1.53348793 4.4375 1.375 C3.61121094 1.30023438 2.78492188 1.22546875 1.93359375 1.1484375 C1.29550781 1.09945312 0.65742188 1.05046875 0 1 C0 0.67 0 0.34 0 0 Z " fill="#8DB3C2" transform="translate(161,112)"/>
<path d="M0 0 C4.42857143 5.14285714 4.42857143 5.14285714 5 9 C3.35 9 1.7 9 0 9 C0 6 0 3 0 0 Z " fill="#93B4BE" transform="translate(175,88)"/>
<path d="M0 0 C0 3 0 3 -1.96875 5.04296875 C-2.8040625 5.75066406 -3.639375 6.45835937 -4.5 7.1875 C-5.3353125 7.90292969 -6.170625 8.61835938 -7.03125 9.35546875 C-7.6809375 9.89816406 -8.330625 10.44085938 -9 11 C-9.66 10.34 -10.32 9.68 -11 9 C-10.21625 8.7525 -9.4325 8.505 -8.625 8.25 C-5.55451513 6.78786435 -5.3550799 5.98117578 -4 3 C-1.875 1.25 -1.875 1.25 0 0 Z " fill="#94B5C7" transform="translate(226,217)"/>
<path d="M0 0 C5.28 0.33 10.56 0.66 16 1 C16 1.33 16 1.66 16 2 C11.05 2.33 6.1 2.66 1 3 C0.67 2.01 0.34 1.02 0 0 Z " fill="#8BADC0" transform="translate(170,194)"/>
<path d="M0 0 C0.99 1.485 0.99 1.485 2 3 C1.67 3.66 1.34 4.32 1 5 C1.66 5.33 2.32 5.66 3 6 C2.67 6.99 2.34 7.98 2 9 C2.99 9.33 3.98 9.66 5 10 C4.67 11.65 4.34 13.3 4 15 C-0.03854121 9.9079263 -0.10306393 6.28689984 0 0 Z " fill="#8BB1C0" transform="translate(162,169)"/>
<path d="M0 0 C0.66 0.33 1.32 0.66 2 1 C2.125 8.625 2.125 8.625 1 12 C0.34 12 -0.32 12 -1 12 C-0.67 8.04 -0.34 4.08 0 0 Z " fill="#8FB2CA" transform="translate(97,99)"/>
<path d="M0 0 C3.3 0.66 6.6 1.32 10 2 C6.81237635 4.12508244 4.73487777 4.5020163 1 5 C0.34 4.01 -0.32 3.02 -1 2 C-0.67 1.34 -0.34 0.68 0 0 Z " fill="#88B0C2" transform="translate(101,193)"/>
<path d="M0 0 C-0.66 1.32 -1.32 2.64 -2 4 C-4.97 3.505 -4.97 3.505 -8 3 C-8 2.34 -8 1.68 -8 1 C-5.07175348 0.02391783 -3.04386724 -0.08226668 0 0 Z " fill="#DDDDDE" transform="translate(95,15)"/>
<path d="M0 0 C2.125 0.375 2.125 0.375 4 1 C4 1.99 4 2.98 4 4 C2.68 3.67 1.36 3.34 0 3 C-0.66 4.32 -1.32 5.64 -2 7 C-2.125 4.625 -2.125 4.625 -2 2 C-1.34 1.34 -0.68 0.68 0 0 Z " fill="#A3C5CF" transform="translate(169,84)"/>
<path d="M0 0 C4.12751449 0.60698743 7.3321148 2.03810791 11 4 C8.83032311 4.95465783 7.43671207 5.14401212 5.17578125 4.3984375 C3.4315257 3.64129615 1.71372869 2.82390802 0 2 C0 1.34 0 0.68 0 0 Z " fill="#91B3C2" transform="translate(189,27)"/>
<path d="M0 0 C4.2742558 1.5830577 6.26531794 4.50568404 9 8 C8.67 8.66 8.34 9.32 8 10 C6.84806377 8.90220176 5.70365063 7.79650554 4.5625 6.6875 C3.92441406 6.07261719 3.28632813 5.45773438 2.62890625 4.82421875 C1 3 1 3 0 0 Z " fill="#8DB6C4" transform="translate(176,83)"/>
<path d="M0 0 C0.99 0.33 1.98 0.66 3 1 C3.5625 2.9375 3.5625 2.9375 4 5 C4.66 5.66 5.32 6.32 6 7 C3.03824877 6.38722388 1.61941217 5.74627478 -1 4 C-0.67 2.68 -0.34 1.36 0 0 Z " fill="#D2D5D5" transform="translate(222,27)"/>
<path d="M0 0 C2.31 0 4.62 0 7 0 C7.66 1.98 8.32 3.96 9 6 C6 4 3 2 0 0 Z " fill="#92B5C3" transform="translate(164,75)"/>
<path d="M0 0 C0.33 0 0.66 0 1 0 C1.309375 0.94875 1.61875 1.8975 1.9375 2.875 C2.87394742 5.86080408 2.87394742 5.86080408 4 8 C2.68 8 1.36 8 0 8 C0 7.01 0 6.02 0 5 C-0.99 4.67 -1.98 4.34 -3 4 C-2.34 3.67 -1.68 3.34 -1 3 C-0.67 2.01 -0.34 1.02 0 0 Z " fill="#8AB1BD" transform="translate(165,93)"/>
<path d="M0 0 C5.41538462 -0.36923077 5.41538462 -0.36923077 8.375 1.5 C8.91125 1.995 9.4475 2.49 10 3 C6.4780279 3.08004482 3.38018531 3.04005702 0 2 C0 1.34 0 0.68 0 0 Z " fill="#91BAC9" transform="translate(162,20)"/>
</svg>
